<svg width="22" height="23" viewBox="0 0 22 23" fill="none" xmlns="http://www.w3.org/2000/svg">
<g id="Icon">
<path d="M1 11.8269C1 17.3498 5.47715 21.8269 11 21.8269C12.6569 21.8269 14 20.4838 14 18.8269V18.3269C14 17.8625 14 17.6303 14.0257 17.4353C14.2029 16.0891 15.2622 15.0298 16.6084 14.8526C16.8034 14.8269 17.0356 14.8269 17.5 14.8269H18C19.6569 14.8269 21 13.4838 21 11.8269C21 6.30406 16.5228 1.8269 11 1.8269C5.47715 1.8269 1 6.30406 1 11.8269Z" stroke="#12ac5a" stroke-width="2" stroke-linecap="round" stroke-linejoin="round"/>
<path d="M6 12.8269C6.55228 12.8269 7 12.3792 7 11.8269C7 11.2746 6.55228 10.8269 6 10.8269C5.44772 10.8269 5 11.2746 5 11.8269C5 12.3792 5.44772 12.8269 6 12.8269Z" stroke="#12ac5a" stroke-width="2" stroke-linecap="round" stroke-linejoin="round"/>
<path d="M15 8.8269C15.5523 8.8269 16 8.37919 16 7.8269C16 7.27462 15.5523 6.8269 15 6.8269C14.4477 6.8269 14 7.27462 14 7.8269C14 8.37919 14.4477 8.8269 15 8.8269Z" stroke="#12ac5a" stroke-width="2" stroke-linecap="round" stroke-linejoin="round"/>
<path d="M9 7.8269C9.55228 7.8269 10 7.37919 10 6.8269C10 6.27462 9.55228 5.8269 9 5.8269C8.44772 5.8269 8 6.27462 8 6.8269C8 7.37919 8.44772 7.8269 9 7.8269Z" stroke="#12ac5a" stroke-width="2" stroke-linecap="round" stroke-linejoin="round"/>
</g>
</svg>
