<?xml version="1.0" encoding="utf-8"?>
<svg viewBox="0 0 18 18" fill="none" xmlns="http://www.w3.org/2000/svg">
  <path d="M9 18C13.9711 18 18 13.9711 18 9C18 4.02891 13.9711 0 9 0C4.02891 0 0 4.02891 0 9C0 13.9711 4.02891 18 9 18ZM3.57187 11.0391C3.4418 10.5574 3.83555 10.125 4.33477 10.125H13.6652C14.1645 10.125 14.5582 10.5574 14.4281 11.0391C13.7812 13.4297 11.5945 15.1875 9 15.1875C6.40547 15.1875 4.21875 13.4297 3.57187 11.0391ZM7.65 7.48125L7.64297 7.47422C7.63594 7.46719 7.62891 7.45664 7.61836 7.44258C7.59727 7.41445 7.56211 7.37227 7.51992 7.32305C7.43203 7.22461 7.30898 7.09102 7.16133 6.96094C6.85195 6.68672 6.50039 6.46875 6.1875 6.46875C5.87461 6.46875 5.52305 6.68672 5.21367 6.96094C5.06602 7.09102 4.94297 7.22461 4.85508 7.32305C4.81289 7.37227 4.77773 7.41445 4.75664 7.44258C4.74609 7.45664 4.73555 7.46719 4.73203 7.47422L4.725 7.48125C4.65117 7.57969 4.52461 7.61836 4.41211 7.57969C4.29961 7.54102 4.21875 7.43555 4.21875 7.3125C4.21875 6.6832 4.4543 6.06094 4.80234 5.59687C5.14688 5.13984 5.64258 4.78125 6.1875 4.78125C6.73242 4.78125 7.22812 5.13984 7.57266 5.59687C7.9207 6.06094 8.15625 6.6832 8.15625 7.3125C8.15625 7.43203 8.07891 7.54102 7.96289 7.57969C7.84688 7.61836 7.72031 7.57969 7.65 7.48125V7.48125ZM13.275 7.48125L13.268 7.47422C13.2609 7.46719 13.2539 7.45664 13.2434 7.44258C13.2223 7.41445 13.1871 7.37227 13.1449 7.32305C13.057 7.22461 12.934 7.09102 12.7863 6.96094C12.477 6.68672 12.1254 6.46875 11.8125 6.46875C11.4996 6.46875 11.148 6.68672 10.8387 6.96094C10.691 7.09102 10.568 7.22461 10.4801 7.32305C10.4379 7.37227 10.4027 7.41445 10.3816 7.44258C10.3711 7.45664 10.3605 7.46719 10.357 7.47422L10.35 7.48125C10.2762 7.57969 10.1496 7.61836 10.0371 7.57969C9.92461 7.54102 9.84375 7.43555 9.84375 7.3125C9.84375 6.6832 10.0793 6.06094 10.4273 5.59687C10.7719 5.13984 11.2676 4.78125 11.8125 4.78125C12.3574 4.78125 12.8531 5.13984 13.1977 5.59687C13.5457 6.06094 13.7812 6.6832 13.7812 7.3125C13.7812 7.43203 13.7039 7.54102 13.5879 7.57969C13.4719 7.61836 13.3453 7.57969 13.275 7.48125V7.48125Z" fill="#fff"/>
</svg>