<?xml version="1.0" encoding="utf-8"?>
<svg viewBox="0 0 22 18" fill="none" xmlns="http://www.w3.org/2000/svg">
  <path d="M1.33382 0.179372C0.976321 -0.108909 0.457259 -0.042112 0.175384 0.323513C-0.106491 0.689138 -0.0411788 1.22 0.316321 1.50828L20.6663 17.8208C21.0238 18.1091 21.5429 18.0423 21.8248 17.6766C22.1066 17.311 22.0413 16.7802 21.6838 16.4919L18.676 14.0802C18.6932 14.0204 18.7001 13.9571 18.7001 13.8903C18.7001 12.92 18.3219 11.9884 17.6516 11.2993L17.6001 11.2501C16.8954 10.5294 16.5001 9.55203 16.5001 8.5325V7.31258C16.5001 4.59148 14.6094 2.32039 12.1001 1.80008V1.12508C12.1001 0.50281 11.6085 7.55423e-05 11.0001 7.55423e-05C10.3916 7.55423e-05 9.90007 0.50281 9.90007 1.12508V1.80008C8.4357 2.10242 7.18445 3.00242 6.39382 4.2364L1.33382 0.179372ZM5.50007 8.5325C5.50007 9.55203 5.10476 10.5294 4.40007 11.2501L4.34851 11.3028C3.6782 11.9884 3.30007 12.92 3.30007 13.8938C3.30007 14.2981 3.61976 14.6251 4.01507 14.6251H13.9632L5.50007 7.80828V8.53601V8.5325ZM13.2001 15.7501H11.0001H8.80007C8.80007 16.3477 9.03038 16.9208 9.44288 17.3427C9.85538 17.7645 10.4157 18.0001 11.0001 18.0001C11.5844 18.0001 12.1448 17.7645 12.5573 17.3427C12.9698 16.9208 13.2001 16.3477 13.2001 15.7501Z" fill="#fff" fill-opacity="0.5"/>
</svg>