<?xml version="1.0" encoding="utf-8"?>
<svg viewBox="0 0 16 18" fill="none" xmlns="http://www.w3.org/2000/svg">
  <path d="M7.99921 0C7.36708 0 6.85637 0.502734 6.85637 1.125V1.8C4.24926 2.32031 2.285 4.59141 2.285 7.3125V7.97344C2.285 9.62578 1.66715 11.2219 0.552881 12.4594L0.288598 12.7512C-0.0113978 13.0816 -0.0828254 13.5563 0.099315 13.9605C0.281456 14.3648 0.692164 14.625 1.14216 14.625H14.8563C15.3063 14.625 15.7134 14.3648 15.8991 13.9605C16.0848 13.5563 16.0098 13.0816 15.7098 12.7512L15.4455 12.4594C14.3313 11.2219 13.7134 9.6293 13.7134 7.97344V7.3125C13.7134 4.59141 11.7492 2.32031 9.14205 1.8V1.125C9.14205 0.502734 8.63135 0 7.99921 0ZM9.61705 17.3426C10.0456 16.9207 10.2849 16.3477 10.2849 15.75H7.99921H5.71353C5.71353 16.3477 5.95281 16.9207 6.38138 17.3426C6.80994 17.7645 7.39208 18 7.99921 18C8.60635 18 9.18848 17.7645 9.61705 17.3426Z" fill="#fff"/>
</svg>