<?xml version="1.0" encoding="utf-8"?>
<svg viewBox="0 0 13 22" fill="none" xmlns="http://www.w3.org/2000/svg">
  <path d="M1.39445 4.33522C1.29615 3.83403 1.24701 3.58343 1.28278 3.42907C1.31385 3.29501 1.38034 3.19346 1.46231 3.15486C1.55671 3.11041 1.69899 3.21876 1.98355 3.43547L11.0387 10.3313C11.3173 10.5435 11.4566 10.6496 11.4997 10.7969C11.5371 10.9249 11.5371 11.0752 11.4997 11.2032C11.4566 11.3506 11.3173 11.4566 11.0387 11.6688L1.9867 18.5623C1.70128 18.7796 1.55857 18.8883 1.46408 18.8437C1.38203 18.8049 1.31553 18.7031 1.28457 18.5688C1.24892 18.4141 1.2986 18.163 1.39796 17.6607L2.66271 11.2673C2.67972 11.1813 2.68823 11.1383 2.69163 11.0942C2.69465 11.0552 2.69468 11.0157 2.69172 10.9766C2.68839 10.9326 2.67994 10.8895 2.66306 10.8035L1.39445 4.33522Z" fill="#fff"/>
</svg>