<svg width="64" height="64" viewBox="0 0 64 64" fill="none" xmlns="http://www.w3.org/2000/svg">
<path d="M32 45.3333L45.3333 32M45.3333 32L32 18.6667M45.3333 32H18.6667M18 62H46C51.6005 62 54.4008 62 56.5399 60.9101C58.4215 59.9513 59.9513 58.4215 60.9101 56.5399C62 54.4008 62 51.6005 62 46V18C62 12.3995 62 9.59921 60.9101 7.46009C59.9513 5.57847 58.4215 4.04867 56.5399 3.08993C54.4008 2 51.6005 2 46 2H18C12.3995 2 9.59921 2 7.46009 3.08993C5.57847 4.04867 4.04867 5.57847 3.08993 7.46009C2 9.59921 2 12.3995 2 18V46C2 51.6005 2 54.4008 3.08993 56.5399C4.04867 58.4215 5.57847 59.9513 7.46009 60.9101C9.59921 62 12.3995 62 18 62Z" stroke="white" stroke-width="3" stroke-linecap="round" stroke-linejoin="round"/>
</svg>
