<svg width="65" height="64" viewBox="0 0 65 64" fill="none" xmlns="http://www.w3.org/2000/svg">
<path d="M32.5 45.3333L18.9444 32M18.9444 32L32.5 18.6667M18.9444 32H46.0556M46.7333 62H18.2667C12.5728 62 9.72587 62 7.5511 60.9101C5.63812 59.9513 4.08281 58.4215 3.1081 56.5399C2 54.4008 2 51.6005 2 46V18C2 12.3995 2 9.59921 3.1081 7.46009C4.08281 5.57847 5.63812 4.04867 7.5511 3.08993C9.72587 2 12.5728 2 18.2667 2H46.7333C52.4272 2 55.2741 2 57.4489 3.08993C59.3619 4.04867 60.9172 5.57847 61.8919 7.46009C63 9.59921 63 12.3995 63 18V46C63 51.6005 63 54.4008 61.8919 56.5399C60.9172 58.4215 59.3619 59.9513 57.4489 60.9101C55.2741 62 52.4272 62 46.7333 62Z" stroke="white" stroke-width="3" stroke-linecap="round" stroke-linejoin="round"/>
</svg>
